<?xml version="1.0" encoding="UTF-8"?>
<svg version="1.1" xmlns="http://www.w3.org/2000/svg" width="96" height="93">
<path d="M0 0 C2.12493141 -0.02693575 4.24995912 -0.04636628 6.375 -0.0625 C7.55835938 -0.07410156 8.74171875 -0.08570313 9.9609375 -0.09765625 C13 0 13 0 15 1 C15.99 0.67 16.98 0.34 18 0 C18.66 0.33 19.32 0.66 20 1 C20 2.65 20 4.3 20 6 C20.94875 6.144375 21.8975 6.28875 22.875 6.4375 C26 7 26 7 28 8 C27.67 9.65 27.34 11.3 27 13 C27.99 13.66 28.98 14.32 30 15 C30.33 14.34 30.66 13.68 31 13 C31.69867188 13.2165625 32.39734375 13.433125 33.1171875 13.65625 C34.02726562 13.9346875 34.93734375 14.213125 35.875 14.5 C36.77992187 14.7784375 37.68484375 15.056875 38.6171875 15.34375 C40.90944647 16.08850794 40.90944647 16.08850794 43 16 C43.495 18.475 43.495 18.475 44 21 C45.98 21.66 47.96 22.32 50 23 C50.78978552 28.61991821 51.18305139 34.09749606 51.23828125 39.76953125 C51.246353 40.57235031 51.25442474 41.37516937 51.26274109 42.20231628 C51.2764671 43.88379829 51.28723966 45.56530682 51.29516602 47.24682617 C51.30678305 48.96631027 51.32738457 50.68575569 51.35668945 52.4050293 C51.39915195 54.90177653 51.41549269 57.39746899 51.42578125 59.89453125 C51.44328934 60.66328079 51.46079742 61.43203033 51.47883606 62.22407532 C51.45730764 67.48349437 51.45730764 67.48349437 49.22338867 70.0065918 C47 71 47 71 43 71 C42.67 73.31 42.34 75.62 42 78 C41.15695313 77.97679688 40.31390625 77.95359375 39.4453125 77.9296875 C38.34960938 77.91164063 37.25390625 77.89359375 36.125 77.875 C35.03445312 77.85179688 33.94390625 77.82859375 32.8203125 77.8046875 C29.8628949 77.69939466 29.8628949 77.69939466 28 80 C28 80.66 28 81.32 28 82 C27.01 82.495 27.01 82.495 26 83 C26.33 83.99 26.66 84.98 27 86 C26.01 86 25.02 86 24 86 C23.67 85.01 23.34 84.02 23 83 C20.50638429 84.20381448 18.31856917 85.45428722 16 87 C17.32 87 18.64 87 20 87 C20 87.99 20 88.98 20 90 C19.01 90 18.02 90 17 90 C16.505 91.485 16.505 91.485 16 93 C9.07 93 2.14 93 -5 93 C-6 89 -6 89 -6 87 C-7.98 86.67 -9.96 86.34 -12 86 C-11.67 83.69 -11.34 81.38 -11 79 C-12.98 78.67 -14.96 78.34 -17 78 C-17 77.01 -17 76.02 -17 75 C-16.34 75 -15.68 75 -15 75 C-15 74.34 -15 73.68 -15 73 C-14.01 73 -13.02 73 -12 73 C-12 72.34 -12 71.68 -12 71 C-13.65 71 -15.3 71 -17 71 C-17.33 72.32 -17.66 73.64 -18 75 C-20.97793335 74.57458095 -22.92530835 74.04668228 -25.5 72.4375 C-28.28155668 70.83810491 -29.84930659 70.72994056 -33 71 C-33 70.01 -33 69.02 -33 68 C-33.99 67.67 -34.98 67.34 -36 67 C-36 66.01 -36 65.02 -36 64 C-34.68 64 -33.36 64 -32 64 C-31.9906543 62.83428467 -31.98130859 61.66856934 -31.97167969 60.4675293 C-31.93182818 56.1453622 -31.86608352 51.82391058 -31.79248047 47.50219727 C-31.76424263 45.63119696 -31.7430421 43.76007674 -31.72900391 41.88891602 C-31.70761283 39.20005779 -31.66098455 36.51264562 -31.609375 33.82421875 C-31.60753204 32.56782845 -31.60753204 32.56782845 -31.60565186 31.28605652 C-31.45851623 25.46153712 -31.45851623 25.46153712 -28.96191406 22.94848633 C-28.31448242 22.63548584 -27.66705078 22.32248535 -27 22 C-27.66 21.34 -28.32 20.68 -29 20 C-29 19.01 -29 18.02 -29 17 C-28.34 17 -27.68 17 -27 17 C-27 15.68 -27 14.36 -27 13 C-25.68 13 -24.36 13 -23 13 C-22.34 14.32 -21.68 15.64 -21 17 C-20.67 16.01 -20.34 15.02 -20 14 C-16.86650268 12.95550089 -16.01031744 13.06576355 -13 14 C-13 13.01 -13 12.02 -13 11 C-12.37400383 9.31763529 -11.71247732 7.6476038 -11 6 C-8.03 6.495 -8.03 6.495 -5 7 C-5 7.66 -5 8.32 -5 9 C-1.37206002 7.13433512 -1.37206002 7.13433512 1 4 C0.01 4 -0.98 4 -2 4 C-1.34 2.68 -0.68 1.36 0 0 Z M6 1 C7 3 7 3 7 3 Z M16 7 C17 9 17 9 17 9 Z M31 17 C32 19 32 19 32 19 Z M23 20 C24 22 24 22 24 22 Z M27 25 C28 27 28 27 28 27 Z M46 26 C46 39.86 46 53.72 46 68 C46.33 68 46.66 68 47 68 C47 54.14 47 40.28 47 26 C46.67 26 46.34 26 46 26 Z M9 27 C9.33 27.66 9.66 28.32 10 29 C12.31 29 14.62 29 17 29 C17 28.34 17 27.68 17 27 C14.36 27 11.72 27 9 27 Z M4 28 C8 29 8 29 8 29 Z M18 28 C17.67 28.66 17.34 29.32 17 30 C18.65 29.67 20.3 29.34 22 29 C20.68 28.67 19.36 28.34 18 28 Z M22 29 C22.33 29.66 22.66 30.32 23 31 C23.99 30.67 24.98 30.34 26 30 C24.68 29.67 23.36 29.34 22 29 Z M-5 36 C-4 38 -4 38 -4 38 Z M-3 39 C-2.67 39.66 -2.34 40.32 -2 41 C3.78591511 41.10477512 9.29309366 40.99250545 15 40 C15 39.67 15 39.34 15 39 C9.06 39 3.12 39 -3 39 Z M23 39 C18.71 39.66 14.42 40.32 10 41 C10 41.33 10 41.66 10 42 C11.77074917 42.02705729 13.54161711 42.04642195 15.3125 42.0625 C16.29863281 42.07410156 17.28476562 42.08570313 18.30078125 42.09765625 C21.09963849 42.12329862 21.09963849 42.12329862 24 41 C23.67 40.34 23.34 39.68 23 39 Z M-4 43 C-3 47 -3 47 -3 47 Z M-15 48 C-14 50 -14 50 -14 50 Z M-16 50 C-15 52 -15 52 -15 52 Z M-5 51 C-4 53 -4 53 -4 53 Z M0 51 C0 51.99 0 52.98 0 54 C0.66 53.67 1.32 53.34 2 53 C1.34 52.34 0.68 51.68 0 51 Z M-17 52 C-16 54 -16 54 -16 54 Z M-4 53 C-3 55 -3 55 -3 55 Z M3 55 C4 57 4 57 4 57 Z M-19 57 C-18 60 -18 60 -18 60 Z M1 58 C1 61 1 61 1 61 Z M5 58 C6 61 6 61 6 61 Z M-17 59 C-16 61 -16 61 -16 61 Z M48 59 C49 62 49 62 49 62 Z M-20 61 C-20 62.65 -20 64.3 -20 66 C-19.67 66 -19.34 66 -19 66 C-19 64.35 -19 62.7 -19 61 C-19.33 61 -19.66 61 -20 61 Z M-16 61 C-15 64 -15 64 -15 64 Z M3 63 C3.33 63.66 3.66 64.32 4 65 C4.33 64.34 4.66 63.68 5 63 C4.34 63 3.68 63 3 63 Z M6 64 C7 66 7 66 7 66 Z M8 64 C8 65.98 8 67.96 8 70 C8.33 70 8.66 70 9 70 C9 68.02 9 66.04 9 64 C8.67 64 8.34 64 8 64 Z M-15 65 C-14 67 -14 67 -14 67 Z M-19 66 C-19 67.65 -19 69.3 -19 71 C-18.67 70.01 -18.34 69.02 -18 68 C-17.34 67.67 -16.68 67.34 -16 67 C-16.99 66.67 -17.98 66.34 -19 66 Z M-14 67 C-14 67.66 -14 68.32 -14 69 C-13.34 68.67 -12.68 68.34 -12 68 C-12.66 67.67 -13.32 67.34 -14 67 Z M5 67 C6 70 6 70 6 70 Z M-12 69 C-11 71 -11 71 -11 71 Z M9 70 C10 74 10 74 10 74 Z M-11 71 C-10 73 -10 73 -10 73 Z M7 71 C8 75 8 75 8 75 Z M-10 73 C-9 75 -9 75 -9 75 Z M-14 75 C-14 75.66 -14 76.32 -14 77 C-13.34 77 -12.68 77 -12 77 C-12 76.34 -12 75.68 -12 75 C-12.66 75 -13.32 75 -14 75 Z M8 75 C8 77.31 8 79.62 8 82 C8.33 82 8.66 82 9 82 C9 79.69 9 77.38 9 75 C8.67 75 8.34 75 8 75 Z M-8 77 C-7 79 -7 79 -7 79 Z M-7 79 C-6 82 -6 82 -6 82 Z M-4 84 C-4.33 84.66 -4.66 85.32 -5 86 C-3.68 85.67 -2.36 85.34 -1 85 C-1.99 84.67 -2.98 84.34 -4 84 Z M10 89 C9.34 89.66 8.68 90.32 8 91 C8.99 91 9.98 91 11 91 C10.67 90.34 10.34 89.68 10 89 Z " fill="#AAC549" transform="translate(42,0)"/>
<path d="M0 0 C1.60781893 0.7631861 3.21113138 1.53587058 4.8125 2.3125 C5.70582031 2.74175781 6.59914063 3.17101562 7.51953125 3.61328125 C10 5 10 5 11.5 6.53125 C13.50685165 8.49629224 15.57130702 9.20218057 18.1875 10.1875 C19.08855469 10.53167969 19.98960938 10.87585937 20.91796875 11.23046875 C21.60503906 11.48441406 22.29210937 11.73835938 23 12 C23.33 11.34 23.66 10.68 24 10 C24.495 10.99 24.495 10.99 25 12 C26.32 11.67 27.64 11.34 29 11 C29.38218767 12.65614657 29.71395102 14.32457024 30 16 C29.505 16.495 29.505 16.495 29 17 C29.01790864 18.9940071 29.04547114 20.98834723 29.11898804 22.9810791 C29.24744647 26.5438074 29.280316 30.10624212 29.32128906 33.67089844 C29.35683681 35.5432954 29.41735288 37.41539966 29.50390625 39.28613281 C30.16792717 54.38189878 30.16792717 54.38189878 26.60809326 58.68093872 C23.06027892 61.60383463 19.07212268 63.46039211 14.84759521 65.20953369 C12.41457145 66.25046695 10.22707462 67.58511926 7.9921875 68.99609375 C6.62011646 69.81044332 5.24773699 70.62427352 3.875 71.4375 C2.823125 72.06688477 2.823125 72.06688477 1.75 72.70898438 C-1.75597569 74.78280207 -5.14511409 76.62754062 -9 78 C-8.67257813 76.865625 -8.34515625 75.73125 -8.0078125 74.5625 C-6.86413405 69.98778621 -6.76927958 65.69236013 -6.875 61 C-6.88402344 60.22527344 -6.89304687 59.45054688 -6.90234375 58.65234375 C-6.92560612 56.76809157 -6.9614636 54.88400168 -7 53 C-7.99 52.67 -8.98 52.34 -10 52 C-10.12375 50.081875 -10.12375 50.081875 -10.25 48.125 C-10.47634066 45.93234619 -10.47634066 45.93234619 -11 44 C-12.81601365 42.79996657 -12.81601365 42.79996657 -15 42 C-19 36.77777778 -19 36.77777778 -19 33 C-16.36 33 -13.72 33 -11 33 C-11 32.34 -11 31.68 -11 31 C-4.4 31 2.2 31 9 31 C9.99 28.69 10.98 26.38 12 24 C13 21.66666667 14 19.33333333 15 17 C14.34 17 13.68 17 13 17 C13 16.34 13 15.68 13 15 C12.34 15 11.68 15 11 15 C9.42362994 13.05012435 7.94982761 11.10291234 6.5 9.0625 C3.80306619 4.93646397 3.80306619 4.93646397 0 2 C0 1.34 0 0.68 0 0 Z " fill="#0492D1" transform="translate(59,10)"/>
<path d="M0 0 C2 1.375 2 1.375 4 3 C4 3.66 4 4.32 4 5 C4.66 5 5.32 5 6 5 C6 5.66 6 6.32 6 7 C6.66 7 7.32 7 8 7 C7.57388649 8.75280733 7.13360733 10.50217435 6.6875 12.25 C6.44386719 13.22453125 6.20023438 14.1990625 5.94921875 15.203125 C4.99478552 18.01536448 4.01145917 19.8282446 2 22 C1.34 22 0.68 22 0 22 C-0.495 21.01 -0.495 21.01 -1 20 C-1.99 20.165 -2.98 20.33 -4 20.5 C-9.06785338 21.22103605 -14.08852526 21.63715825 -19 20 C-21.33299825 19.96045766 -23.66708189 19.95598268 -26 20 C-23.36 20.33 -20.72 20.66 -18 21 C-18 21.66 -18 22.32 -18 23 C-20.64 23 -23.28 23 -26 23 C-25.23832543 24.46313772 -24.46529293 25.92036661 -23.6875 27.375 C-23.25824219 28.18710937 -22.82898438 28.99921875 -22.38671875 29.8359375 C-21.03221276 32.26834043 -21.03221276 32.26834043 -18 34 C-16.32358826 37.35282349 -16 39.16119422 -16 43 C-15.34 43 -14.68 43 -14 43 C-12.4983806 46.0032388 -12.78985552 48.78377851 -12.75 52.125 C-12.72421875 53.40632813 -12.6984375 54.68765625 -12.671875 56.0078125 C-12.81716627 60.42158512 -14.28916095 63.95701718 -16 68 C-15.33581055 67.61255615 -14.67162109 67.2251123 -13.98730469 66.82592773 C-13.05821289 66.28395752 -12.12912109 65.7419873 -11.171875 65.18359375 C-10.14320312 64.58353516 -9.11453125 63.98347656 -8.0546875 63.36523438 C-3.23828125 60.55566406 -3.23828125 60.55566406 1.578125 57.74609375 C2.62959717 57.10760498 3.68106934 56.46911621 4.7644043 55.8112793 C8 54 8 54 11.43286133 52.68286133 C15.08906162 51.14250889 17.33646086 49.96083686 20 47 C22.07453374 40.5622928 21.4027894 33.47830327 21.1875 26.8125 C21.16692895 24.95122532 21.15190049 23.08988064 21.14257812 21.22851562 C21.12920278 18.60846655 21.10790861 15.99154982 21.04203796 13.37226868 C21.02325089 12.59433456 21.00446381 11.81640045 20.98510742 11.01489258 C20.96445724 10.33429276 20.94380707 9.65369293 20.92253113 8.95246887 C21.00594362 6.85020146 21.42400871 5.01865512 22 3 C23.32 3 24.64 3 26 3 C26.78978552 8.61991821 27.18305139 14.09749606 27.23828125 19.76953125 C27.246353 20.57235031 27.25442474 21.37516937 27.26274109 22.20231628 C27.2764671 23.88379829 27.28723966 25.56530682 27.29516602 27.24682617 C27.30678305 28.96631027 27.32738457 30.68575569 27.35668945 32.4050293 C27.39915195 34.90177653 27.41549269 37.39746899 27.42578125 39.89453125 C27.44328934 40.66328079 27.46079742 41.43203033 27.47883606 42.22407532 C27.45730764 47.48349437 27.45730764 47.48349437 25.22338867 50.0065918 C23 51 23 51 19 51 C18.67 53.31 18.34 55.62 18 58 C17.15695313 57.97679687 16.31390625 57.95359375 15.4453125 57.9296875 C14.34960938 57.91164062 13.25390625 57.89359375 12.125 57.875 C11.03445312 57.85179687 9.94390625 57.82859375 8.8203125 57.8046875 C5.8628949 57.69939466 5.8628949 57.69939466 4 60 C4 60.66 4 61.32 4 62 C3.01 62.495 3.01 62.495 2 63 C2.495 64.485 2.495 64.485 3 66 C2.01 66 1.02 66 0 66 C-0.33 65.01 -0.66 64.02 -1 63 C-3.49361571 64.20381448 -5.68143083 65.45428722 -8 67 C-6.68 67 -5.36 67 -4 67 C-4 67.99 -4 68.98 -4 70 C-4.99 70 -5.98 70 -7 70 C-7.495 71.485 -7.495 71.485 -8 73 C-14.93 73 -21.86 73 -29 73 C-30 69 -30 69 -30 67 C-31.98 66.67 -33.96 66.34 -36 66 C-35.67 63.69 -35.34 61.38 -35 59 C-36.98 58.67 -38.96 58.34 -41 58 C-41 57.01 -41 56.02 -41 55 C-40.34 55 -39.68 55 -39 55 C-39 54.34 -39 53.68 -39 53 C-38.01 53 -37.02 53 -36 53 C-35.7179942 49.23992268 -36.06250958 46.58975099 -37.5625 43.1875 C-39.36256984 38.75130893 -39.42844704 34.58368766 -38 30 C-37.02455278 28.97603578 -36.02490619 27.97445744 -35 27 C-34.67 25.96875 -34.34 24.9375 -34 23.875 C-33.67 22.92625 -33.34 21.9775 -33 21 C-32.01 20.67 -31.02 20.34 -30 20 C-30 18.35 -30 16.7 -30 15 C-29.030625 14.5875 -28.06125 14.175 -27.0625 13.75 C-25.5465625 12.88375 -25.5465625 12.88375 -24 12 C-23.835 11.34 -23.67 10.68 -23.5 10 C-23 8 -23 8 -20.625 6.25 C-13.96674113 3.95404866 -6.83439789 4.52229235 0 6 C-0.2784375 5.071875 -0.2784375 5.071875 -0.5625 4.125 C-1 2 -1 2 0 0 Z M3 5 C4 7 4 7 4 7 Z M-15 7 C-14.67 7.66 -14.34 8.32 -14 9 C-11.69 9 -9.38 9 -7 9 C-7 8.34 -7 7.68 -7 7 C-9.64 7 -12.28 7 -15 7 Z M-20 8 C-16 9 -16 9 -16 9 Z M-6 8 C-6.33 8.66 -6.66 9.32 -7 10 C-5.35 9.67 -3.7 9.34 -2 9 C-3.32 8.67 -4.64 8.34 -6 8 Z M-2 9 C-1.67 9.66 -1.34 10.32 -1 11 C-0.01 10.67 0.98 10.34 2 10 C0.68 9.67 -0.64 9.34 -2 9 Z M-29 16 C-28 18 -28 18 -28 18 Z M-28 23 C-27 27 -27 27 -27 27 Z M-29 31 C-28 33 -28 33 -28 33 Z M-24 31 C-24 31.99 -24 32.98 -24 34 C-23.34 33.67 -22.68 33.34 -22 33 C-22.66 32.34 -23.32 31.68 -24 31 Z M-28 33 C-27 35 -27 35 -27 35 Z M-21 35 C-20 37 -20 37 -20 37 Z M-23 38 C-23 41 -23 41 -23 41 Z M-19 38 C-18 41 -18 41 -18 41 Z M24 39 C25 42 25 42 25 42 Z M-21 43 C-20.67 43.66 -20.34 44.32 -20 45 C-19.67 44.34 -19.34 43.68 -19 43 C-19.66 43 -20.32 43 -21 43 Z M-18 44 C-17 46 -17 46 -17 46 Z M-16 44 C-16 45.98 -16 47.96 -16 50 C-15.67 50 -15.34 50 -15 50 C-15 48.02 -15 46.04 -15 44 C-15.33 44 -15.66 44 -16 44 Z M-19 47 C-18 50 -18 50 -18 50 Z M-15 50 C-14 54 -14 54 -14 54 Z M-35 51 C-34 53 -34 53 -34 53 Z M-17 51 C-16 55 -16 55 -16 55 Z M-34 53 C-33 55 -33 55 -33 55 Z M-38 55 C-38 55.66 -38 56.32 -38 57 C-37.34 57 -36.68 57 -36 57 C-36 56.34 -36 55.68 -36 55 C-36.66 55 -37.32 55 -38 55 Z M-16 55 C-16 57.31 -16 59.62 -16 62 C-15.67 62 -15.34 62 -15 62 C-15 59.69 -15 57.38 -15 55 C-15.33 55 -15.66 55 -16 55 Z M-32 57 C-31 59 -31 59 -31 59 Z M-31 59 C-30 62 -30 62 -30 62 Z M-28 64 C-28.33 64.66 -28.66 65.32 -29 66 C-27.68 65.67 -26.36 65.34 -25 65 C-25.99 64.67 -26.98 64.34 -28 64 Z M-14 69 C-14.66 69.66 -15.32 70.32 -16 71 C-15.01 71 -14.02 71 -13 71 C-13.33 70.34 -13.66 69.68 -14 69 Z " fill="#9DE2EB" transform="translate(66,20)"/>
<path d="M0 0 C1.32 0 2.64 0 4 0 C4.78978552 5.61991821 5.18305139 11.09749606 5.23828125 16.76953125 C5.246353 17.57235031 5.25442474 18.37516937 5.26274109 19.20231628 C5.2764671 20.88379829 5.28723966 22.56530682 5.29516602 24.24682617 C5.30678305 25.96631027 5.32738457 27.68575569 5.35668945 29.4050293 C5.39915195 31.90177653 5.41549269 34.39746899 5.42578125 36.89453125 C5.44328934 37.66328079 5.46079742 38.43203033 5.47883606 39.22407532 C5.45730764 44.48349437 5.45730764 44.48349437 3.22338867 47.0065918 C1 48 1 48 -3 48 C-3.33 50.31 -3.66 52.62 -4 55 C-4.84304687 54.97679687 -5.68609375 54.95359375 -6.5546875 54.9296875 C-7.65039062 54.91164062 -8.74609375 54.89359375 -9.875 54.875 C-10.96554688 54.85179687 -12.05609375 54.82859375 -13.1796875 54.8046875 C-16.1371051 54.69939466 -16.1371051 54.69939466 -18 57 C-18 57.66 -18 58.32 -18 59 C-18.99 59.495 -18.99 59.495 -20 60 C-19.67 60.99 -19.34 61.98 -19 63 C-19.99 63 -20.98 63 -22 63 C-22.33 62.01 -22.66 61.02 -23 60 C-25.49361571 61.20381448 -27.68143083 62.45428722 -30 64 C-28.68 64 -27.36 64 -26 64 C-26 64.99 -26 65.98 -26 67 C-26.99 67 -27.98 67 -29 67 C-29.33 67.99 -29.66 68.98 -30 70 C-36.93 70 -43.86 70 -51 70 C-52 66 -52 66 -51 63 C-48.36 62.67 -45.72 62.34 -43 62 C-43 62.66 -43 63.32 -43 64 C-42.01 64 -41.02 64 -40 64 C-40.66 57.73 -41.32 51.46 -42 45 C-43.485 45.495 -43.485 45.495 -45 46 C-45.28875 44.9275 -45.5775 43.855 -45.875 42.75 C-46.72820109 39.90599636 -47.5636503 37.56491017 -49 35 C-45.00003714 36.33332095 -44.16217663 38.4957827 -42 42 C-40.02 41.34 -38.04 40.68 -36 40 C-34.4983806 43.0032388 -34.78985552 45.78377851 -34.75 49.125 C-34.72421875 50.40632813 -34.6984375 51.68765625 -34.671875 53.0078125 C-34.81716627 57.42158512 -36.28916095 60.95701718 -38 65 C-37.33581055 64.61255615 -36.67162109 64.2251123 -35.98730469 63.82592773 C-35.05821289 63.28395752 -34.12912109 62.7419873 -33.171875 62.18359375 C-31.62886719 61.28350586 -31.62886719 61.28350586 -30.0546875 60.36523438 C-25.23828125 57.55566406 -25.23828125 57.55566406 -20.421875 54.74609375 C-19.37040283 54.10760498 -18.31893066 53.46911621 -17.2355957 52.8112793 C-14 51 -14 51 -10.56713867 49.68286133 C-6.91093838 48.14250889 -4.66353914 46.96083686 -2 44 C0.07453374 37.5622928 -0.5972106 30.47830327 -0.8125 23.8125 C-0.83307105 21.95122532 -0.84809951 20.08988064 -0.85742188 18.22851562 C-0.87079722 15.60846655 -0.89209139 12.99154982 -0.95796204 10.37226868 C-0.97674911 9.59433456 -0.99553619 8.81640045 -1.01489258 8.01489258 C-1.03554276 7.33429276 -1.05619293 6.65369293 -1.07746887 5.95246887 C-0.99405638 3.85020146 -0.57599129 2.01865512 0 0 Z M2 36 C3 39 3 39 3 39 Z M-38 41 C-38 42.98 -38 44.96 -38 47 C-37.67 47 -37.34 47 -37 47 C-37 45.02 -37 43.04 -37 41 C-37.33 41 -37.66 41 -38 41 Z M-41 44 C-40 47 -40 47 -40 47 Z M-37 47 C-36 51 -36 51 -36 51 Z M-39 48 C-38 52 -38 52 -38 52 Z M-38 52 C-38 54.31 -38 56.62 -38 59 C-37.67 59 -37.34 59 -37 59 C-37 56.69 -37 54.38 -37 52 C-37.33 52 -37.66 52 -38 52 Z M-36 66 C-36.66 66.66 -37.32 67.32 -38 68 C-37.01 68 -36.02 68 -35 68 C-35.33 67.34 -35.66 66.68 -36 66 Z " fill="#9BE3F0" transform="translate(88,23)"/>
<path d="M0 0 C1.32 0.33 2.64 0.66 4 1 C3.34 1 2.68 1 2 1 C2.58977747 2.8172331 3.19728453 4.62872043 3.8125 6.4375 C4.14894531 7.44683594 4.48539063 8.45617187 4.83203125 9.49609375 C5.41017578 10.73552734 5.41017578 10.73552734 6 12 C6.99 12.33 7.98 12.66 9 13 C9 13.99 9 14.98 9 16 C9.66 16.99 10.32 17.98 11 19 C11.38499891 20.65549531 11.72793135 22.3222433 12 24 C12.66 24 13.32 24 14 24 C16.30844801 30.34823202 16.19818283 36.29481414 16 43 C15.01 43 14.02 43 13 43 C13 42.34 13 41.68 13 41 C8.8218637 40.91807576 5.07510108 41.09442198 1 42 C0.01 42 -0.98 42 -2 42 C-1.67 39.69 -1.34 37.38 -1 35 C-2.98 34.67 -4.96 34.34 -7 34 C-7 33.01 -7 32.02 -7 31 C-6.34 31 -5.68 31 -5 31 C-5 30.34 -5 29.68 -5 29 C-4.01 29 -3.02 29 -2 29 C-1.7179942 25.23992268 -2.06250958 22.58975099 -3.5625 19.1875 C-5.36256984 14.75130893 -5.42844704 10.58368766 -4 6 C-3.02709966 4.97361561 -2.02756106 3.97165748 -1 3 C-0.67 2.01 -0.34 1.02 0 0 Z M-1 27 C0 29 0 29 0 29 Z M0 29 C1 31 1 31 1 31 Z M-4 31 C-4 31.66 -4 32.32 -4 33 C-3.34 33 -2.68 33 -2 33 C-2 32.34 -2 31.68 -2 31 C-2.66 31 -3.32 31 -4 31 Z M2 33 C3 35 3 35 3 35 Z M3 35 C4 38 4 38 4 38 Z " fill="#0A97CA" transform="translate(32,44)"/>
<path d="M0 0 C1.32 0 2.64 0 4 0 C4.2475 0.804375 4.495 1.60875 4.75 2.4375 C5.72238859 5.171081 5.72238859 5.171081 8.125 5.8125 C8.74375 5.874375 9.3625 5.93625 10 6 C9.34 6 8.68 6 8 6 C8 6.66 8 7.32 8 8 C6.71086513 8.67154933 5.41859796 9.33708859 4.125 10 C3.40570313 10.37125 2.68640625 10.7425 1.9453125 11.125 C0 12 0 12 -2 12 C-1.67 26.19 -1.34 40.38 -1 55 C0.98 55.66 2.96 56.32 5 57 C4.98839844 56.21496094 4.97679687 55.42992187 4.96484375 54.62109375 C4.82576705 38.42859245 4.82576705 38.42859245 10 32 C10.66 32 11.32 32 12 32 C12.81525053 35.15909581 13.00106532 37.95564359 12.875 41.1875 C12.78985329 45.80090361 13.91796197 49.60701198 15.44140625 53.93359375 C16 56 16 56 15 58 C13.35 58 11.7 58 10 58 C9.67 59.32 9.34 60.64 9 62 C6.02206665 61.57458095 4.07469165 61.04668228 1.5 59.4375 C-1.28155668 57.83810491 -2.84930659 57.72994056 -6 58 C-6 57.01 -6 56.02 -6 55 C-6.99 54.67 -7.98 54.34 -9 54 C-9 53.01 -9 52.02 -9 51 C-7.68 51 -6.36 51 -5 51 C-4.9906543 49.83428467 -4.98130859 48.66856934 -4.97167969 47.4675293 C-4.93182818 43.1453622 -4.86608352 38.82391058 -4.79248047 34.50219727 C-4.76424263 32.63119696 -4.7430421 30.76007674 -4.72900391 28.88891602 C-4.70761283 26.20005779 -4.66098455 23.51264562 -4.609375 20.82421875 C-4.60753204 19.56782845 -4.60753204 19.56782845 -4.60565186 18.28605652 C-4.45851623 12.46153712 -4.45851623 12.46153712 -1.96191406 9.94848633 C-1.31448242 9.63548584 -0.66705078 9.32248535 0 9 C-0.66 8.34 -1.32 7.68 -2 7 C-2 6.01 -2 5.02 -2 4 C-1.34 4 -0.68 4 0 4 C0 2.68 0 1.36 0 0 Z M11 37 C12 39 12 39 12 39 Z M10 39 C11 41 11 41 11 41 Z M8 44 C9 47 9 47 9 47 Z M10 46 C11 48 11 48 11 48 Z M7 48 C7 49.65 7 51.3 7 53 C7.33 53 7.66 53 8 53 C8 51.35 8 49.7 8 48 C7.67 48 7.34 48 7 48 Z M11 48 C12 51 12 51 12 51 Z M12 52 C13 54 13 54 13 54 Z M8 53 C8 54.65 8 56.3 8 58 C8.33 57.01 8.66 56.02 9 55 C9.66 54.67 10.32 54.34 11 54 C10.01 53.67 9.02 53.34 8 53 Z M13 54 C13 54.66 13 55.32 13 56 C13.66 55.67 14.32 55.34 15 55 C14.34 54.67 13.68 54.34 13 54 Z " fill="#EAEFCB" transform="translate(15,13)"/>
<path d="M0 0 C2.12493141 -0.02693575 4.24995912 -0.04636628 6.375 -0.0625 C7.55835938 -0.07410156 8.74171875 -0.08570313 9.9609375 -0.09765625 C13 0 13 0 15 1 C15.99 0.67 16.98 0.34 18 0 C18.66 0.33 19.32 0.66 20 1 C20 2.65 20 4.3 20 6 C21.423125 6.2165625 21.423125 6.2165625 22.875 6.4375 C26 7 26 7 28 8 C27.67 9.65 27.34 11.3 27 13 C27.99 13.66 28.98 14.32 30 15 C30.33 14.34 30.66 13.68 31 13 C31.69867188 13.2165625 32.39734375 13.433125 33.1171875 13.65625 C34.02726562 13.9346875 34.93734375 14.213125 35.875 14.5 C36.77992187 14.7784375 37.68484375 15.056875 38.6171875 15.34375 C40.90944647 16.08850794 40.90944647 16.08850794 43 16 C43.495 18.475 43.495 18.475 44 21 C43.01 21 42.02 21 41 21 C40.01 21.33 39.02 21.66 38 22 C32.19693512 20.06564504 27.34704243 16.77468868 22.2578125 13.42578125 C20.30413149 11.91101034 20.30413149 11.91101034 19 12 C19 12.99 19 13.98 19 15 C18.01 14.67 17.02 14.34 16 14 C15.29618843 12.01276732 14.6288189 10.01222047 14 8 C10.83369211 6.41684606 7.45687949 6.69760895 4 7 C1.76591887 7.99083967 1.76591887 7.99083967 0 9 C-0.99 8.67 -1.98 8.34 -3 8 C-1.68 6.68 -0.36 5.36 1 4 C0.01 4 -0.98 4 -2 4 C-1.34 2.68 -0.68 1.36 0 0 Z M6 1 C7 3 7 3 7 3 Z M16 7 C17 9 17 9 17 9 Z " fill="#D3EFF1" transform="translate(42,0)"/>
<path d="M0 0 C1.32 0 2.64 0 4 0 C4.78978552 5.61991821 5.18305139 11.09749606 5.23828125 16.76953125 C5.246353 17.57235031 5.25442474 18.37516937 5.26274109 19.20231628 C5.2764671 20.88379829 5.28723966 22.56530682 5.29516602 24.24682617 C5.30678305 25.96631027 5.32738457 27.68575569 5.35668945 29.4050293 C5.39915195 31.90177653 5.41549269 34.39746899 5.42578125 36.89453125 C5.44328934 37.66328079 5.46079742 38.43203033 5.47883606 39.22407532 C5.46503313 42.59614682 5.44906057 44.4947845 3.16088867 47.0690918 C1 48 1 48 -2 47 C-1.88170835 40.94924881 -1.75745662 34.89866043 -1.62768555 28.84814453 C-1.58437991 26.78991013 -1.54270171 24.73164082 -1.50268555 22.67333984 C-1.44487725 19.71441121 -1.38121304 16.7556576 -1.31640625 13.796875 C-1.29969376 12.87694763 -1.28298126 11.95702026 -1.26576233 11.00921631 C-1.24581711 10.1486261 -1.22587189 9.28803589 -1.20532227 8.40136719 C-1.18977798 7.64635925 -1.1742337 6.89135132 -1.15821838 6.11346436 C-0.99814367 3.97520329 -0.58183632 2.06010916 0 0 Z M2 36 C3 39 3 39 3 39 Z " fill="#EFFEFE" transform="translate(88,23)"/>
<path d="M0 0 C1.60781893 0.7631861 3.21113138 1.53587058 4.8125 2.3125 C5.70582031 2.74175781 6.59914063 3.17101562 7.51953125 3.61328125 C10 5 10 5 11.5 6.53125 C13.50685165 8.49629224 15.57130702 9.20218057 18.1875 10.1875 C19.08855469 10.53167969 19.98960938 10.87585937 20.91796875 11.23046875 C21.60503906 11.48441406 22.29210937 11.73835938 23 12 C23.33 11.34 23.66 10.68 24 10 C24.33 10.66 24.66 11.32 25 12 C26.32 11.67 27.64 11.34 29 11 C29.38218767 12.65614657 29.71395102 14.32457024 30 16 C29.67 16.33 29.34 16.66 29 17 C28.83970312 19.95529504 28.74042672 22.88982457 28.68359375 25.84765625 C28.66281265 26.7340831 28.64203156 27.62050995 28.62062073 28.53379822 C28.555026 31.376617 28.49619448 34.21953117 28.4375 37.0625 C28.3943242 38.98503606 28.35071022 40.90756234 28.30664062 42.83007812 C28.19933457 47.55328668 28.09809549 52.27659153 28 57 C27.67 57 27.34 57 27 57 C27 43.14 27 29.28 27 15 C19.90888965 15.7409496 19.90888965 15.7409496 13 17 C13 16.34 13 15.68 13 15 C12.34 15 11.68 15 11 15 C9.42362994 13.05012435 7.94982761 11.10291234 6.5 9.0625 C3.80306619 4.93646397 3.80306619 4.93646397 0 2 C0 1.34 0 0.68 0 0 Z " fill="#60C1E1" transform="translate(59,10)"/>
<path d="M0 0 C1.16781006 0.00523682 2.33562012 0.01047363 3.53881836 0.01586914 C4.79887695 0.0190918 6.05893555 0.02231445 7.35717773 0.02563477 C8.6976732 0.03399136 10.03816799 0.04245632 11.37866211 0.05102539 C12.72306153 0.05603879 14.06746271 0.06060197 15.41186523 0.06469727 C18.71334151 0.07653051 22.01473014 0.09301568 25.31616211 0.11352539 C24.24215103 3.02869831 23.53806035 4.89162715 21.31616211 7.11352539 C12.10096549 7.95908776 2.52534419 6.82682303 -6.68383789 6.11352539 C-3.15718443 0.13354778 -3.15718443 0.13354778 0 0 Z " fill="#1A9CC7" transform="translate(45.683837890625,30.886474609375)"/>
<path d="M0 0 C0.66 0 1.32 0 2 0 C2.81525053 3.15909581 3.00106532 5.95564359 2.875 9.1875 C2.78985329 13.80090361 3.91796197 17.60701198 5.44140625 21.93359375 C6 24 6 24 5 26 C3.02 26 1.04 26 -1 26 C-0.67 24.68 -0.34 23.36 0 22 C-0.66 21.67 -1.32 21.34 -2 21 C-2 19.35 -2 17.7 -2 16 C-2.66 16 -3.32 16 -4 16 C-4 19.63 -4 23.26 -4 27 C-5.32 26.34 -6.64 25.68 -8 25 C-7.01 25 -6.02 25 -5 25 C-5.01160156 24.21496094 -5.02320313 23.42992188 -5.03515625 22.62109375 C-5.17423295 6.42859245 -5.17423295 6.42859245 0 0 Z M1 5 C2 7 2 7 2 7 Z M0 7 C1 9 1 9 1 9 Z M-2 12 C-1 15 -1 15 -1 15 Z M0 14 C1 16 1 16 1 16 Z M1 16 C2 19 2 19 2 19 Z M2 20 C3 22 3 22 3 22 Z M3 22 C3 22.66 3 23.32 3 24 C3.66 23.67 4.32 23.34 5 23 C4.34 22.67 3.68 22.34 3 22 Z " fill="#B3C767" transform="translate(25,45)"/>
<path d="M0 0 C3.3 0 6.6 0 10 0 C10 0.33 10 0.66 10 1 C7.36 1 4.72 1 2 1 C2.76167457 2.46313772 3.53470707 3.92036661 4.3125 5.375 C4.74175781 6.18710937 5.17101563 6.99921875 5.61328125 7.8359375 C6.96778724 10.26834043 6.96778724 10.26834043 10 12 C11.51131361 14.79593018 12.03465194 16.50332221 11.8125 19.6875 C11 22 11 22 8 24 C7.71125 23.401875 7.4225 22.80375 7.125 22.1875 C5.95257974 19.80672208 5.95257974 19.80672208 4 17 C3.34 16.01 2.68 15.02 2 14 C1.01 14 0.02 14 -1 14 C-1.53229326 12.73392393 -2.05044544 11.46189588 -2.5625 10.1875 C-2.85253906 9.47980469 -3.14257812 8.77210937 -3.44140625 8.04296875 C-4 6 -4 6 -3 3 C-1.68 3.66 -0.36 4.32 1 5 C0.67 3.35 0.34 1.7 0 0 Z M-1 9 C0 11 0 11 0 11 Z M4 9 C4 9.99 4 10.98 4 12 C4.66 11.67 5.32 11.34 6 11 C5.34 10.34 4.68 9.68 4 9 Z M0 11 C1 13 1 13 1 13 Z M7 13 C8 15 8 15 8 15 Z M9 16 C10 19 10 19 10 19 Z " fill="#90C7D1" transform="translate(38,42)"/>
<path d="M0 0 C0 0.66 0 1.32 0 2 C1.32 2 2.64 2 4 2 C4 2.66 4 3.32 4 4 C5.32 4.66 6.64 5.32 8 6 C8 5.34 8 4.68 8 4 C8.99 4 9.98 4 11 4 C11 3.34 11 2.68 11 2 C12.98 2 14.96 2 17 2 C17 2.99 17 3.98 17 5 C16.01 5 15.02 5 14 5 C13.67 5.99 13.34 6.98 13 8 C6.07 8 -0.86 8 -8 8 C-9 4 -9 4 -8 1 C-5.17884816 -0.07009208 -3.09455459 0 0 0 Z " fill="#EDEFEE" transform="translate(45,85)"/>
<path d="M0 0 C-0.66 3.3 -1.32 6.6 -2 10 C-2.84304687 9.97679688 -3.68609375 9.95359375 -4.5546875 9.9296875 C-5.65039062 9.91164063 -6.74609375 9.89359375 -7.875 9.875 C-8.96554688 9.85179688 -10.05609375 9.82859375 -11.1796875 9.8046875 C-14.1371051 9.69939466 -14.1371051 9.69939466 -16 12 C-16 12.66 -16 13.32 -16 14 C-16.99 14.495 -16.99 14.495 -18 15 C-17.67 15.99 -17.34 16.98 -17 18 C-17.99 18 -18.98 18 -20 18 C-20.33 17.01 -20.66 16.02 -21 15 C-21.99 15 -22.98 15 -24 15 C-24 14.34 -24 13.68 -24 13 C-22.01220703 11.57958984 -22.01220703 11.57958984 -19.2578125 9.9609375 C-18.27425781 9.38085938 -17.29070312 8.80078125 -16.27734375 8.203125 C-15.23707031 7.59984375 -14.19679688 6.9965625 -13.125 6.375 C-12.09246094 5.76398438 -11.05992188 5.15296875 -9.99609375 4.5234375 C-2.27192034 0 -2.27192034 0 0 0 Z " fill="#BCE7ED" transform="translate(86,68)"/>
<path d="M0 0 C1.80078125 0.16015625 1.80078125 0.16015625 4 1 C5.66796875 3.43359375 5.66796875 3.43359375 7.1875 6.4375 C7.95126953 7.92056641 7.95126953 7.92056641 8.73046875 9.43359375 C9.14941406 10.28050781 9.56835938 11.12742187 10 12 C10.33 12.66 10.66 13.32 11 14 C7.7 14.33 4.4 14.66 1 15 C-0.04449911 11.86650268 0.06576355 11.01031744 1 8 C-1.97 7.505 -1.97 7.505 -5 7 C-5 6.01 -5 5.02 -5 4 C-4.34 4 -3.68 4 -3 4 C-3 3.34 -3 2.68 -3 2 C-2.01 2 -1.02 2 0 2 C0 1.34 0 0.68 0 0 Z M2 2 C3 4 3 4 3 4 Z M-2 4 C-2 4.66 -2 5.32 -2 6 C-1.34 6 -0.68 6 0 6 C0 5.34 0 4.68 0 4 C-0.66 4 -1.32 4 -2 4 Z M4 6 C5 8 5 8 5 8 Z M5 8 C6 11 6 11 6 11 Z " fill="#ECEFF1" transform="translate(30,71)"/>
<path d="M0 0 C1.32 0 2.64 0 4 0 C4.2475 0.804375 4.495 1.60875 4.75 2.4375 C5.72238859 5.171081 5.72238859 5.171081 8.125 5.8125 C9.053125 5.9053125 9.053125 5.9053125 10 6 C9.34 6 8.68 6 8 6 C8 6.66 8 7.32 8 8 C6.71086513 8.67154933 5.41859796 9.33708859 4.125 10 C3.40570312 10.37125 2.68640625 10.7425 1.9453125 11.125 C-0 12 -0 12 -2 12 C-2 26.19 -2 40.38 -2 55 C-2.33 55 -2.66 55 -3 55 C-3.24162167 48.93172499 -3.45666312 42.86331423 -3.64697266 36.79321289 C-3.71548787 34.7278525 -3.79129888 32.66272085 -3.87451172 30.59790039 C-3.99277845 27.6319703 -4.08489402 24.66621051 -4.171875 21.69921875 C-4.21439392 20.7741301 -4.25691284 19.84904144 -4.30072021 18.8959198 C-4.35662246 16.52848184 -4.3844296 14.33672386 -4 12 C-1.98925781 9.89379883 -1.98925781 9.89379883 0 9 C-0.66 8.34 -1.32 7.68 -2 7 C-2 6.01 -2 5.02 -2 4 C-1.34 4 -0.68 4 0 4 C0 2.68 0 1.36 0 0 Z " fill="#D7E691" transform="translate(15,13)"/>
<path d="M0 0 C2.95839355 -0.02689449 5.91654427 -0.04678741 8.875 -0.0625 C9.71675781 -0.07087891 10.55851562 -0.07925781 11.42578125 -0.08789062 C12.23144531 -0.09111328 13.03710938 -0.09433594 13.8671875 -0.09765625 C14.98262939 -0.10551147 14.98262939 -0.10551147 16.12060547 -0.11352539 C18 0 18 0 20 1 C19.67 1.99 19.34 2.98 19 4 C13.39497562 4.72322895 8.0218535 5.03933567 2.375 4.96875 C-0.82863188 5.01090305 -3.84658183 5.45157945 -7 6 C-7.33 4.68 -7.66 3.36 -8 2 C-5.36 2 -2.72 2 0 2 C0 1.34 0 0.68 0 0 Z " fill="#4DB2D3" transform="translate(48,41)"/>
<path d="M0 0 C2.26954631 3.40431947 2.36549949 5.16524202 2.625 9.1875 C2.69976562 10.27417969 2.77453125 11.36085938 2.8515625 12.48046875 C2.90054688 13.31191406 2.94953125 14.14335938 3 15 C6.81691388 15.2525235 6.81691388 15.2525235 10.0625 13.4375 C10.701875 12.963125 11.34125 12.48875 12 12 C14.12109375 12.41015625 14.12109375 12.41015625 16 13 C13.77312024 14.29574871 11.54366825 15.58667308 9.3125 16.875 C8.68666016 17.23980469 8.06082031 17.60460937 7.41601562 17.98046875 C4.01805058 19.93741197 0.69932381 21.65607739 -3 23 C-2.690625 21.989375 -2.38125 20.97875 -2.0625 19.9375 C-0.40619903 13.44151109 -0.32998523 6.66917508 0 0 Z " fill="#1392C5" transform="translate(53,65)"/>
<path d="M0 0 C2 1.125 2 1.125 4 3 C4.25 6.1875 4.25 6.1875 4 9 C0.18243176 10.37432457 -3.07255329 9.67975039 -7 9 C-7 8.34 -7 7.68 -7 7 C-11.64586892 7.48484276 -11.64586892 7.48484276 -16 9 C-18.3329866 9.04022391 -20.66706666 9.04320247 -23 9 C-20.38915048 6.14049814 -18.47696809 5.07883346 -14.51171875 4.8671875 C-9.56738035 4.88086478 -4.85818698 4.94958119 0 6 C-0.185625 5.38125 -0.37125 4.7625 -0.5625 4.125 C-1 2 -1 2 0 0 Z " fill="#D1E4A6" transform="translate(66,20)"/>
<path d="M0 0 C1.98 0.495 1.98 0.495 4 1 C3.67 3.31 3.34 5.62 3 8 C3.66 8 4.32 8 5 8 C5 10.97 5 13.94 5 17 C2.5625 16.625 2.5625 16.625 0 16 C-1.29758261 13.40483479 -1.13269102 11.45816973 -1.125 8.5625 C-1.12757812 7.59441406 -1.13015625 6.62632813 -1.1328125 5.62890625 C-1 3 -1 3 0 0 Z " fill="#B2C744" transform="translate(15,53)"/>
<path d="M0 0 C11.08994709 5.16402116 11.08994709 5.16402116 14 9 C14 9.66 14 10.32 14 11 C14.66 11.33 15.32 11.66 16 12 C15.67 13.65 15.34 15.3 15 17 C14.34 17 13.68 17 13 17 C13 16.34 13 15.68 13 15 C12.34 15 11.68 15 11 15 C9.42362994 13.05012435 7.94982761 11.10291234 6.5 9.0625 C3.80306619 4.93646397 3.80306619 4.93646397 0 2 C0 1.34 0 0.68 0 0 Z " fill="#2C9FB4" transform="translate(59,10)"/>
<path d="M0 0 C3.96 0 7.92 0 12 0 C11.34 1.32 10.68 2.64 10 4 C11.32 4.66 12.64 5.32 14 6 C11.30463198 7.34768401 8.91440734 6.951775 5.96484375 6.8984375 C3.59066238 7.0211586 2.05657918 7.85745601 0 9 C-0.99 8.67 -1.98 8.34 -3 8 C-1.68 6.68 -0.36 5.36 1 4 C0.01 4 -0.98 4 -2 4 C-1.34 2.68 -0.68 1.36 0 0 Z M6 1 C7 3 7 3 7 3 Z " fill="#CED79E" transform="translate(42,0)"/>
<path d="M0 0 C0.95234646 3.26518786 1.29137701 6.53092952 1.67578125 9.90234375 C1.99624057 11.97567696 2.50250194 13.87381495 3.125 15.875 C4 19 4 19 3 21 C1.02 21 -0.96 21 -3 21 C-2.67 19.68 -2.34 18.36 -2 17 C-2.66 16.67 -3.32 16.34 -4 16 C-3.67 13.03 -3.34 10.06 -3 7 C-2.67 7 -2.34 7 -2 7 C-1.34 4.69 -0.68 2.38 0 0 Z M-1 11 C0 14 0 14 0 14 Z M0 15 C1 17 1 17 1 17 Z M1 17 C1 17.66 1 18.32 1 19 C1.66 18.67 2.32 18.34 3 18 C2.34 17.67 1.68 17.34 1 17 Z " fill="#C3E7E4" transform="translate(27,50)"/>
<path d="M0 0 C1.32 0.33 2.64 0.66 4 1 C3.34 1 2.68 1 2 1 C2.185625 2.11375 2.37125 3.2275 2.5625 4.375 C3 8 3 8 2 10 C0.68 10 -0.64 10 -2 10 C-2 13.3 -2 16.6 -2 20 C-4.87787699 17.12212301 -4.93963116 13.90888268 -5 10 C-3.96556892 6.29328863 -2.042232 3.24900546 0 0 Z " fill="#25A2C4" transform="translate(32,44)"/>
<path d="M0 0 C0.99 0 1.98 0 3 0 C3 0.66 3 1.32 3 2 C6.3 2.33 9.6 2.66 13 3 C13 3.33 13 3.66 13 4 C9.7 4.66 6.4 5.32 3 6 C5.64 6.33 8.28 6.66 11 7 C11 7.33 11 7.66 11 8 C7.7 8 4.4 8 1 8 C1 9.65 1 11.3 1 13 C0.566875 12.54625 0.13375 12.0925 -0.3125 11.625 C-2.10798342 9.79975666 -2.10798342 9.79975666 -5 8 C-3.68 7.34 -2.36 6.68 -1 6 C-1.020625 5.195625 -1.04125 4.39125 -1.0625 3.5625 C-1 1 -1 1 0 0 Z M0 2 C1 4 1 4 1 4 Z " fill="#CAF2E5" transform="translate(37,34)"/>
<path d="M0 0 C0.77085938 0.2165625 1.54171875 0.433125 2.3359375 0.65625 C3.84027344 1.07390625 3.84027344 1.07390625 5.375 1.5 C6.37273437 1.7784375 7.37046875 2.056875 8.3984375 2.34375 C10.87603276 3.08153015 10.87603276 3.08153015 13 3 C13.33 4.65 13.66 6.3 14 8 C13.01 8 12.02 8 11 8 C10.01 8.33 9.02 8.66 8 9 C4.8125 7.5625 4.8125 7.5625 2 6 C2 5.34 2 4.68 2 4 C1.34 3.67 0.68 3.34 0 3 C0 2.01 0 1.02 0 0 Z " fill="#CADEE2" transform="translate(72,13)"/>
<path d="M0 0 C1.32 0 2.64 0 4 0 C4 13.53 4 27.06 4 41 C3.01 40.67 2.02 40.34 1 40 C1.99 39.505 1.99 39.505 3 39 C2.90628901 34.51558642 2.80015655 30.03168913 2.68261719 25.54785156 C2.64438734 24.02319342 2.609524 22.49844693 2.578125 20.97363281 C2.53234338 18.77897619 2.47437234 16.5849246 2.4140625 14.390625 C2.40251129 13.7113092 2.39096008 13.03199341 2.37905884 12.33209229 C2.26568812 8.6783717 1.79055395 6.17183843 0 3 C0 2.01 0 1.02 0 0 Z " fill="#F8FA57" transform="translate(6,22)"/>
<path d="M0 0 C0.66 0.33 1.32 0.66 2 1 C2 4.96 2 8.92 2 13 C1.01 13 0.02 13 -1 13 C-1 12.34 -1 11.68 -1 11 C-1.804375 10.87625 -2.60875 10.7525 -3.4375 10.625 C-4.283125 10.41875 -5.12875 10.2125 -6 10 C-6.33 9.34 -6.66 8.68 -7 8 C-6.030625 7.608125 -5.06125 7.21625 -4.0625 6.8125 C-0.77823609 5.32405113 -0.77823609 5.32405113 -0.125 2.3125 C-0.08375 1.549375 -0.0425 0.78625 0 0 Z " fill="#149AC3" transform="translate(46,74)"/>
<path d="M0 0 C2.97 0.495 2.97 0.495 6 1 C6 1.66 6 2.32 6 3 C6.66 3.33 7.32 3.66 8 4 C6.58833114 4.98635837 5.17043816 5.96381255 3.75 6.9375 C2.56664062 7.75541016 2.56664062 7.75541016 1.359375 8.58984375 C-0.82636993 9.89622441 -2.5153801 10.54980511 -5 11 C-5 10.01 -5 9.02 -5 8 C-3.68 7.67 -2.36 7.34 -1 7 C-1.33 6.01 -1.66 5.02 -2 4 C-1.0625 1.8125 -1.0625 1.8125 0 0 Z " fill="#ECF0CD" transform="translate(31,6)"/>
<path d="M0 0 C0.33 0 0.66 0 1 0 C1 14.19 1 28.38 1 43 C-0.98 43.495 -0.98 43.495 -3 44 C-3 43.01 -3 42.02 -3 41 C-2.01 41 -1.02 41 0 41 C0 27.47 0 13.94 0 0 Z " fill="#068EB9" transform="translate(85,25)"/>
<path d="M0 0 C2.475 0.99 2.475 0.99 5 2 C5 2.99 5 3.98 5 5 C5.66 5 6.32 5 7 5 C8.32 7.64 9.64 10.28 11 13 C9.68 13 8.36 13 7 13 C5.43802705 10.65704057 3.89153541 8.30985802 2.375 5.9375 C1.92898437 5.24527344 1.48296875 4.55304687 1.0234375 3.83984375 C0 2 0 2 0 0 Z " fill="#D3F5F4" transform="translate(37,49)"/>
<path d="M0 0 C3.34373475 0.55728913 6.03312999 1.35173889 9 3 C9.33 2.34 9.66 1.68 10 1 C10.66 2.65 11.32 4.3 12 6 C10.01432292 6.22786458 8.02864583 6.45572917 6.04296875 6.68359375 C3.80603607 6.97170735 3.80603607 6.97170735 1 8 C1.020625 7.236875 1.04125 6.47375 1.0625 5.6875 C1.12942841 2.89814214 1.12942841 2.89814214 0 0 Z " fill="#2BA3CD" transform="translate(73,19)"/>
<path d="M0 0 C0.99 0.33 1.98 0.66 3 1 C3.99 0.67 4.98 0.34 6 0 C6.66 0.33 7.32 0.66 8 1 C7.67 2.98 7.34 4.96 7 7 C6.01 7 5.02 7 4 7 C3.67 7.66 3.34 8.32 3 9 C2.54625 8.21625 2.0925 7.4325 1.625 6.625 C0.11571258 3.96301969 0.11571258 3.96301969 -2 2 C-1.34 1.34 -0.68 0.68 0 0 Z " fill="#E6F0E6" transform="translate(54,0)"/>
<path d="M0 0 C1.98 0 3.96 0 6 0 C6 0.99 6 1.98 6 3 C5.01 3 4.02 3 3 3 C2.67 3.99 2.34 4.98 2 6 C-0.97 6 -3.94 6 -7 6 C-6.67 5.34 -6.34 4.68 -6 4 C-5.01 4 -4.02 4 -3 4 C-3 3.34 -3 2.68 -3 2 C-2.01 2 -1.02 2 0 2 C0 1.34 0 0.68 0 0 Z " fill="#F9FBFB" transform="translate(56,87)"/>
<path d="M0 0 C1.32 0 2.64 0 4 0 C4 0.66 4 1.32 4 2 C5.32 2 6.64 2 8 2 C8 2.66 8 3.32 8 4 C8.66 4.33 9.32 4.66 10 5 C9.01 6.485 9.01 6.485 8 8 C6.68 8 5.36 8 4 8 C3.67 7.01 3.34 6.02 3 5 C1.8509288 3.7018576 1.8509288 3.7018576 -1 3 C-0.67 2.01 -0.34 1.02 0 0 Z " fill="#E4E7EB" transform="translate(41,85)"/>
<path d="M0 0 C1.125 3.75 1.125 3.75 0 6 C-3.63 6 -7.26 6 -11 6 C-3 0 -3 0 0 0 Z " fill="#EFF6F7" transform="translate(84,72)"/>
<path d="M0 0 C1.98 0 3.96 0 6 0 C6 0.66 6 1.32 6 2 C5.34 2 4.68 2 4 2 C3.67 2.99 3.34 3.98 3 5 C0.36 5 -2.28 5 -5 5 C-5.33 4.34 -5.66 3.68 -6 3 C-4.02 2.67 -2.04 2.34 0 2 C0 1.34 0 0.68 0 0 Z " fill="#0896BF" transform="translate(62,33)"/>
<path d="M0 0 C1.32 0 2.64 0 4 0 C4.33 1.98 4.66 3.96 5 6 C2 8 2 8 -0.1875 7.625 C-0.785625 7.41875 -1.38375 7.2125 -2 7 C-2 6.01 -2 5.02 -2 4 C-1.34 4 -0.68 4 0 4 C0 2.68 0 1.36 0 0 Z " fill="#D5D8D3" transform="translate(15,13)"/>
<path d="M0 0 C1.2065625 0.0309375 1.2065625 0.0309375 2.4375 0.0625 C2.4375 2.7025 2.4375 5.3425 2.4375 8.0625 C-0.55574263 6.9649777 -1.40860901 6.38567108 -2.8125 3.4375 C-3.06 2.65375 -3.3075 1.87 -3.5625 1.0625 C-2.5625 0.0625 -2.5625 0.0625 0 0 Z " fill="#1991BC" transform="translate(45.5625,45.9375)"/>
<path d="M0 0 C1.98 0.99 1.98 0.99 4 2 C4 2.66 4 3.32 4 4 C4.66 4.33 5.32 4.66 6 5 C5.67 6.65 5.34 8.3 5 10 C4.34 10 3.68 10 3 10 C3 9.34 3 8.68 3 8 C2.34 8 1.68 8 1 8 C0 1.125 0 1.125 0 0 Z " fill="#159AC0" transform="translate(69,17)"/>
<path d="M0 0 C0.66 0 1.32 0 2 0 C3 3 3 3 1.5625 6.1875 C0.7890625 7.5796875 0.7890625 7.5796875 0 9 C-1.32 8.67 -2.64 8.34 -4 8 C-2.66666667 5.33333333 -1.33333333 2.66666667 0 0 Z " fill="#BCD577" transform="translate(25,45)"/>
<path d="M0 0 C2 1.125 2 1.125 4 3 C4.25 6.1875 4.25 6.1875 4 9 C2.68 9.33 1.36 9.66 0 10 C0.33 9.34 0.66 8.68 1 8 C-1.97 7.505 -1.97 7.505 -5 7 C-5 6.67 -5 6.34 -5 6 C-3.35 6 -1.7 6 0 6 C-0.185625 5.38125 -0.37125 4.7625 -0.5625 4.125 C-1 2 -1 2 0 0 Z " fill="#B6D3A8" transform="translate(66,20)"/>
<path d="M0 0 C0.66 0.33 1.32 0.66 2 1 C2.25 3.8125 2.25 3.8125 2 7 C0.125 8.875 0.125 8.875 -2 10 C-2.66 10 -3.32 10 -4 10 C-2.99806563 6.20696275 -2.18975773 3.28463659 0 0 Z " fill="#ECF4F5" transform="translate(91,61)"/>
<path d="M0 0 C3 2 3 2 3.6875 5.125 C3.790625 6.07375 3.89375 7.0225 4 8 C2.02 8 0.04 8 -2 8 C-1.34 5.36 -0.68 2.72 0 0 Z " fill="#B0CA69" transform="translate(62,18)"/>
<path d="M0 0 C3.98595705 3.41653461 5.84656201 7.32916266 8 12 C8.33 12.66 8.66 13.32 9 14 C7.68 14 6.36 14 5 14 C4.34 11.36 3.68 8.72 3 6 C2.34 6 1.68 6 1 6 C0.67 4.02 0.34 2.04 0 0 Z " fill="#91CDD7" transform="translate(32,71)"/>
<path d="M0 0 C-0.33 1.98 -0.66 3.96 -1 6 C-1.33 5.34 -1.66 4.68 -2 4 C-2.55429688 4.28875 -3.10859375 4.5775 -3.6796875 4.875 C-4.40414062 5.24625 -5.12859375 5.6175 -5.875 6 C-6.59429687 6.37125 -7.31359375 6.7425 -8.0546875 7.125 C-10 8 -10 8 -12 8 C-12 7.34 -12 6.68 -12 6 C-9.8828125 4.4921875 -9.8828125 4.4921875 -7.125 2.875 C-6.22007813 2.33617188 -5.31515625 1.79734375 -4.3828125 1.2421875 C-2 0 -2 0 0 0 Z " fill="#8DCBD5" transform="translate(86,68)"/>
<path d="M0 0 C1.28278071 2.56556142 0.93633937 4.03928737 0.625 6.875 C0.53476562 7.73867188 0.44453125 8.60234375 0.3515625 9.4921875 C0.03874676 11.72360645 -0.40435454 13.82942758 -1 16 C-3.53044493 11.38565925 -3.21579803 6.99065483 -2 2 C-1.34 1.34 -0.68 0.68 0 0 Z " fill="#1F96B9" transform="translate(30,48)"/>
<path d="M0 0 C1.65 0 3.3 0 5 0 C5 1.65 5 3.3 5 5 C3.68 4.67 2.36 4.34 1 4 C1.33 4.33 1.66 4.66 2 5 C2 5.99 2 6.98 2 8 C1.01 7.67 0.02 7.34 -1 7 C-0.67 4.69 -0.34 2.38 0 0 Z " fill="#C3E9E3" transform="translate(59,7)"/>
<path d="M0 0 C-0.8125 1.9375 -0.8125 1.9375 -2 4 C-2.99 4.33 -3.98 4.66 -5 5 C-5.66 5.66 -6.32 6.32 -7 7 C-9 7.6875 -9 7.6875 -11 8 C-11.66 7.67 -12.32 7.34 -13 7 C-11.5957519 4.19150381 -9.89192299 4.11733388 -7 3 C-6.113125 2.46375 -5.22625 1.9275 -4.3125 1.375 C-2 0 -2 0 0 0 Z " fill="#8FC5CF" transform="translate(62,82)"/>
<path d="M0 0 C1.98 0.495 1.98 0.495 4 1 C3.7834375 1.9590625 3.7834375 1.9590625 3.5625 2.9375 C2.82763202 6.93844788 2.41418889 10.95504896 2 15 C1.67 15 1.34 15 1 15 C0.93941406 14.22914062 0.87882812 13.45828125 0.81640625 12.6640625 C0.73261719 11.66117188 0.64882812 10.65828125 0.5625 9.625 C0.48128906 8.62726562 0.40007812 7.62953125 0.31640625 6.6015625 C0.15034374 4.02072387 0.15034374 4.02072387 -1 2 C-0.67 1.34 -0.34 0.68 0 0 Z " fill="#82B8C6" transform="translate(85,21)"/>
<path d="M0 0 C-0.66 0 -1.32 0 -2 0 C-2 0.66 -2 1.32 -2 2 C-3.61992165 2.86375896 -5.24611861 3.71575854 -6.875 4.5625 C-8.23238281 5.27599609 -8.23238281 5.27599609 -9.6171875 6.00390625 C-10.40351563 6.33261719 -11.18984375 6.66132813 -12 7 C-12.66 6.67 -13.32 6.34 -14 6 C-9.25 2 -9.25 2 -7 2 C-6.67 1.34 -6.34 0.68 -6 0 C-3.50907189 -1.24546405 -2.58919267 -0.7767578 0 0 Z " fill="#D8D7A9" transform="translate(25,19)"/>
<path d="M0 0 C1.32 0 2.64 0 4 0 C4.625 2.3125 4.625 2.3125 5 5 C4.01 6.485 4.01 6.485 3 8 C2.34 8 1.68 8 1 8 C0.67 5.36 0.34 2.72 0 0 Z " fill="#EEF9F8" transform="translate(88,23)"/>
<path d="M0 0 C0.33 0.66 0.66 1.32 1 2 C1.66 2 2.32 2 3 2 C3 2.66 3 3.32 3 4 C3.66 4.33 4.32 4.66 5 5 C0.25 8 0.25 8 -2 8 C-1.34 5.36 -0.68 2.72 0 0 Z " fill="#2699C7" transform="translate(52,80)"/>
<path d="M0 0 C2 2 2 2 2 4 C2.31802943 5.66965451 2.64984951 7.33678518 3 9 C1.35 8.67 -0.3 8.34 -2 8 C-1.125 1.125 -1.125 1.125 0 0 Z " fill="#1F91C2" transform="translate(39,56)"/>
<path d="M0 0 C1.65 0.33 3.3 0.66 5 1 C4.67 1.99 4.34 2.98 4 4 C-2.5 5.25 -2.5 5.25 -7 3 C-4.03 3 -1.06 3 2 3 C2 2.34 2 1.68 2 1 C1.34 0.67 0.68 0.34 0 0 Z " fill="#2E94BC" transform="translate(63,41)"/>
<path d="M0 0 C0.99 0.33 1.98 0.66 3 1 C3.1953125 7.0546875 3.1953125 7.0546875 3 9 C2.34 9.66 1.68 10.32 1 11 C0 10 0 10 -0.09765625 7.71484375 C-0.08605469 6.79832031 -0.07445312 5.88179688 -0.0625 4.9375 C-0.05347656 4.01839844 -0.04445312 3.09929687 -0.03515625 2.15234375 C-0.02355469 1.44207031 -0.01195312 0.73179688 0 0 Z " fill="#8DD4DC" transform="translate(49,75)"/>
<path d="M0 0 C1.32 0 2.64 0 4 0 C4 2.64 4 5.28 4 8 C1.44971017 6.72485508 1.06918289 5.59658703 0 3 C0 2.01 0 1.02 0 0 Z " fill="#D5D1D3" transform="translate(6,22)"/>
<path d="M0 0 C1.65 0.33 3.3 0.66 5 1 C4.34 2.32 3.68 3.64 3 5 C1.02 5 -0.96 5 -3 5 C-2.01 3.35 -1.02 1.7 0 0 Z " fill="#FAFBFD" transform="translate(42,88)"/>
<path d="M0 0 C1.32 0 2.64 0 4 0 C4.66 2.31 5.32 4.62 6 7 C5.01 7 4.02 7 3 7 C3 6.01 3 5.02 3 4 C2.01 3.67 1.02 3.34 0 3 C0 2.01 0 1.02 0 0 Z " fill="#D5D3D2" transform="translate(6,64)"/>
<path d="M0 0 C1.134375 0.020625 2.26875 0.04125 3.4375 0.0625 C2.7775 1.7125 2.1175 3.3625 1.4375 5.0625 C0.4475 5.0625 -0.5425 5.0625 -1.5625 5.0625 C-3.25 3.0625 -3.25 3.0625 -4.5625 1.0625 C-3.5625 0.0625 -3.5625 0.0625 0 0 Z M-0.5625 1.0625 C0.4375 3.0625 0.4375 3.0625 0.4375 3.0625 Z " fill="#EAECDB" transform="translate(48.5625,-0.0625)"/>
<path d="M0 0 C0.99 0.33 1.98 0.66 3 1 C3.99 1 4.98 1 6 1 C6 1.99 6 2.98 6 4 C3.69 4 1.38 4 -1 4 C-0.67 2.68 -0.34 1.36 0 0 Z " fill="#F3F8F5" transform="translate(31,82)"/>
<path d="M0 0 C0.99 0.66 1.98 1.32 3 2 C-1.43076923 5.07692308 -1.43076923 5.07692308 -4.3125 4.6875 C-4.869375 4.460625 -5.42625 4.23375 -6 4 C-6 3.34 -6 2.68 -6 2 C-4.7934375 1.7834375 -4.7934375 1.7834375 -3.5625 1.5625 C-1.07896294 1.25864751 -1.07896294 1.25864751 0 0 Z " fill="#ADD596" transform="translate(40,30)"/>
<path d="M0 0 C1.32 0 2.64 0 4 0 C4 0.66 4 1.32 4 2 C4.99 2.33 5.98 2.66 7 3 C3.71303767 3.79953138 2.28976808 4.09658936 -1 3 C-0.67 2.01 -0.34 1.02 0 0 Z " fill="#A9DDE5" transform="translate(41,85)"/>
<path d="M0 0 C1.32 0 2.64 0 4 0 C4 1.65 4 3.3 4 5 C3.34 4.34 2.68 3.68 2 3 C1.67 3.66 1.34 4.32 1 5 C0.34 5 -0.32 5 -1 5 C-0.67 3.35 -0.34 1.7 0 0 Z " fill="#939E6E" transform="translate(22,54)"/>
<path d="M0 0 C1.32 0.66 2.64 1.32 4 2 C3.01 2.99 2.02 3.98 1 5 C0.01 4.67 -0.98 4.34 -2 4 C-1.34 2.68 -0.68 1.36 0 0 Z " fill="#FCFCFD" transform="translate(15,73)"/>
<path d="M0 0 C2.475 0.495 2.475 0.495 5 1 C4.01 1.495 4.01 1.495 3 2 C3 3.98 3 5.96 3 8 C2.34 8 1.68 8 1 8 C1.020625 7.236875 1.04125 6.47375 1.0625 5.6875 C1.12942841 2.89814214 1.12942841 2.89814214 0 0 Z " fill="#54CCE3" transform="translate(73,19)"/>
<path d="M0 0 C0.99 0.33 1.98 0.66 3 1 C3.33 1.99 3.66 2.98 4 4 C1 5 1 5 -2 4 C-1.34 2.68 -0.68 1.36 0 0 Z " fill="#D7D7C8" transform="translate(42,0)"/>
<path d="M0 0 C0.66 0 1.32 0 2 0 C2.66 1.65 3.32 3.3 4 5 C2.68 5 1.36 5 0 5 C-0.33 4.34 -0.66 3.68 -1 3 C-0.67 2.01 -0.34 1.02 0 0 Z " fill="#C6E8EC" transform="translate(44,57)"/>
<path d="M0 0 C2.4375 0.75 2.4375 0.75 5 2 C5.8125 4.125 5.8125 4.125 6 6 C3.37812506 4.95125002 2.20628639 4.35068687 0.75 1.875 C0.5025 1.25625 0.255 0.6375 0 0 Z " fill="#24A5CF" transform="translate(64,13)"/>
<path d="M0 0 C1.98 0.99 1.98 0.99 4 2 C3.01 2.66 2.02 3.32 1 4 C0.67 2.68 0.34 1.36 0 0 Z " fill="#E9E9D8" transform="translate(37,4)"/>
<path d="M0 0 C0.99 0 1.98 0 3 0 C3 0.99 3 1.98 3 3 C2.01 3 1.02 3 0 3 C0 2.01 0 1.02 0 0 Z " fill="#FEFFFF" transform="translate(75,83)"/>
<path d="M0 0 C0.66 0.33 1.32 0.66 2 1 C1.67 1.66 1.34 2.32 1 3 C0.01 2.67 -0.98 2.34 -2 2 C-1.34 1.34 -0.68 0.68 0 0 Z " fill="#A8B3B2" transform="translate(63,83)"/>
<path d="M0 0 C0.99 0 1.98 0 3 0 C3 0.66 3 1.32 3 2 C2.01 2 1.02 2 0 2 C0 1.34 0 0.68 0 0 Z " fill="#FBFCFE" transform="translate(20,76)"/>
<path d="M0 0 C0.66 0.66 1.32 1.32 2 2 C1.01 1.67 0.02 1.34 -1 1 C-0.67 0.67 -0.34 0.34 0 0 Z " fill="#FDFEFD" transform="translate(60,91)"/>
<path d="M0 0 C0.99 0.495 0.99 0.495 2 1 C1.01 1.495 1.01 1.495 0 2 C0 1.34 0 0.68 0 0 Z " fill="#DBF4D9" transform="translate(28,12)"/>
<path d="" fill="#FAFFFB" transform="translate(0,0)"/>
<path d="" fill="#050600" transform="translate(0,0)"/>
<path d="" fill="#000600" transform="translate(0,0)"/>
<path d="" fill="#FFFFFF" transform="translate(0,0)"/>
<path d="" fill="#FFFFE4" transform="translate(0,0)"/>
</svg>
